<svg width="441" height="73" viewBox="0 0 441 73" fill="none" xmlns="http://www.w3.org/2000/svg">
<path d="M49.224 4.16778V15.0158H31.368V71.1758H17.928V15.0158H0.0720001V4.16778H49.224ZM108.47 43.4318C108.47 45.3518 108.342 47.0798 108.086 48.6158H69.2063C69.5263 52.4558 70.8703 55.4638 73.2383 57.6398C75.6063 59.8158 78.5183 60.9038 81.9743 60.9038C86.9663 60.9038 90.5183 58.7598 92.6303 54.4718H107.126C105.59 59.5918 102.646 63.8158 98.2943 67.1438C93.9423 70.4078 88.5983 72.0398 82.2623 72.0398C77.1423 72.0398 72.5343 70.9198 68.4383 68.6798C64.4063 66.3758 61.2383 63.1438 58.9343 58.9838C56.6943 54.8238 55.5742 50.0238 55.5742 44.5838C55.5742 39.0798 56.6943 34.2478 58.9343 30.0878C61.1743 25.9278 64.3103 22.7278 68.3423 20.4878C72.3743 18.2478 77.0143 17.1278 82.2623 17.1278C87.3183 17.1278 91.8303 18.2158 95.7983 20.3918C99.8303 22.5678 102.934 25.6718 105.11 29.7038C107.35 33.6718 108.47 38.2478 108.47 43.4318ZM94.5503 39.5918C94.4863 36.1358 93.2383 33.3838 90.8063 31.3358C88.3743 29.2238 85.3983 28.1678 81.8783 28.1678C78.5503 28.1678 75.7343 29.1918 73.4303 31.2398C71.1903 33.2238 69.8143 36.0078 69.3023 39.5918H94.5503ZM114.824 44.3918C114.824 39.0158 115.88 34.2478 117.992 30.0878C120.168 25.9278 123.08 22.7278 126.728 20.4878C130.44 18.2478 134.568 17.1278 139.112 17.1278C143.08 17.1278 146.536 17.9278 149.48 19.5278C152.488 21.1278 154.888 23.1438 156.68 25.5758V17.9918H170.216V71.1758H156.68V63.3998C154.952 65.8958 152.552 67.9758 149.48 69.6398C146.472 71.2398 142.984 72.0398 139.016 72.0398C134.536 72.0398 130.44 70.8878 126.728 68.5838C123.08 66.2798 120.168 63.0478 117.992 58.8878C115.88 54.6638 114.824 49.8318 114.824 44.3918ZM156.68 44.5838C156.68 41.3198 156.04 38.5358 154.76 36.2318C153.48 33.8638 151.752 32.0718 149.576 30.8558C147.4 29.5758 145.064 28.9358 142.568 28.9358C140.072 28.9358 137.768 29.5438 135.656 30.7598C133.544 31.9758 131.816 33.7678 130.472 36.1358C129.192 38.4398 128.552 41.1918 128.552 44.3918C128.552 47.5918 129.192 50.4078 130.472 52.8398C131.816 55.2078 133.544 57.0318 135.656 58.3118C137.832 59.5918 140.136 60.2318 142.568 60.2318C145.064 60.2318 147.4 59.6238 149.576 58.4078C151.752 57.1278 153.48 55.3358 154.76 53.0318C156.04 50.6638 156.68 47.8478 156.68 44.5838ZM179.887 44.5838C179.887 39.0798 181.007 34.2798 183.247 30.1838C185.487 26.0238 188.591 22.8238 192.559 20.5838C196.527 18.2798 201.071 17.1278 206.191 17.1278C212.783 17.1278 218.223 18.7918 222.511 22.1198C226.863 25.3838 229.775 29.9918 231.247 35.9438H216.751C215.983 33.6398 214.671 31.8478 212.815 30.5678C211.023 29.2238 208.783 28.5518 206.095 28.5518C202.255 28.5518 199.215 29.9598 196.975 32.7758C194.735 35.5278 193.615 39.4638 193.615 44.5838C193.615 49.6398 194.735 53.5758 196.975 56.3918C199.215 59.1438 202.255 60.5198 206.095 60.5198C211.535 60.5198 215.087 58.0878 216.751 53.2238H231.247C229.775 58.9838 226.863 63.5598 222.511 66.9518C218.159 70.3438 212.719 72.0398 206.191 72.0398C201.071 72.0398 196.527 70.9198 192.559 68.6798C188.591 66.3758 185.487 63.1758 183.247 59.0798C181.007 54.9198 179.887 50.0878 179.887 44.5838ZM271.045 17.2238C275.077 17.2238 278.661 18.1198 281.797 19.9118C284.933 21.6398 287.365 24.2318 289.093 27.6878C290.885 31.0798 291.781 35.1758 291.781 39.9758V71.1758H278.341V41.7998C278.341 37.5758 277.285 34.3438 275.173 32.1038C273.061 29.7998 270.181 28.6478 266.533 28.6478C262.821 28.6478 259.877 29.7998 257.701 32.1038C255.589 34.3438 254.533 37.5758 254.533 41.7998V71.1758H241.093V0.13578H254.533V24.6158C256.261 22.3118 258.565 20.5198 261.445 19.2398C264.325 17.8958 267.525 17.2238 271.045 17.2238ZM377.618 4.16778V71.1758H364.178V27.5918L346.226 71.1758H336.05L318.002 27.5918V71.1758H304.562V4.16778H319.826L341.138 53.9918L362.45 4.16778H377.618ZM440.345 43.4318C440.345 45.3518 440.217 47.0798 439.961 48.6158H401.081C401.401 52.4558 402.745 55.4638 405.113 57.6398C407.481 59.8158 410.393 60.9038 413.849 60.9038C418.841 60.9038 422.393 58.7598 424.505 54.4718H439.001C437.465 59.5918 434.521 63.8158 430.169 67.1438C425.817 70.4078 420.473 72.0398 414.137 72.0398C409.017 72.0398 404.409 70.9198 400.313 68.6798C396.281 66.3758 393.113 63.1438 390.809 58.9838C388.569 54.8238 387.449 50.0238 387.449 44.5838C387.449 39.0798 388.569 34.2478 390.809 30.0878C393.049 25.9278 396.185 22.7278 400.217 20.4878C404.249 18.2478 408.889 17.1278 414.137 17.1278C419.193 17.1278 423.705 18.2158 427.673 20.3918C431.705 22.5678 434.809 25.6718 436.985 29.7038C439.225 33.6718 440.345 38.2478 440.345 43.4318ZM426.425 39.5918C426.361 36.1358 425.113 33.3838 422.681 31.3358C420.249 29.2238 417.273 28.1678 413.753 28.1678C410.425 28.1678 407.609 29.1918 405.305 31.2398C403.065 33.2238 401.689 36.0078 401.177 39.5918H426.425Z" fill="black"/>
</svg>
