<svg width="462" height="468" viewBox="0 0 462 468" fill="none" xmlns="http://www.w3.org/2000/svg">
<g clip-path="url(#clip0_8_4)">
<path d="M103.619 78.1565L100.097 96.6511L117.657 101.602L115.476 81.8573L103.619 78.1565Z" fill="#A0616A"/>
<path d="M0 460.996C0 461.578 0.46672 462.044 1.04791 462.044H460.952C461.533 462.044 462 461.578 462 460.996C462 460.415 461.533 459.948 460.952 459.948H1.04791C0.46672 459.948 0 460.415 0 460.996Z" fill="#3F3D56"/>
<path d="M313.51 209.878H132.408C111.871 209.878 95.2221 226.529 95.2221 247.07V422.71C95.2221 443.25 111.871 459.901 132.408 459.901H313.51C334.047 459.901 350.696 443.25 350.696 422.71V247.07C350.696 226.529 334.047 209.878 313.51 209.878Z" fill="white"/>
<path d="M313.51 460.782H132.408C111.418 460.782 94.3415 443.703 94.3415 422.71V247.07C94.3415 226.077 111.418 208.997 132.408 208.997H313.51C334.5 208.997 351.577 226.077 351.577 247.07V422.71C351.577 443.703 334.5 460.782 313.51 460.782ZM132.408 210.759C112.389 210.759 96.1026 227.048 96.1026 247.07V422.71C96.1026 442.732 112.389 459.02 132.408 459.02H313.51C333.529 459.02 349.816 442.732 349.816 422.71V247.07C349.816 227.048 333.529 210.759 313.51 210.759L132.408 210.759Z" fill="#3F3D56"/>
<path d="M326.629 286.024H253.835C250.748 286.024 248.236 283.512 248.236 280.424C248.236 277.336 250.748 274.823 253.835 274.823H326.629C329.716 274.823 332.228 277.336 332.228 280.424C332.228 283.512 329.716 286.024 326.629 286.024Z" fill="#007EB4"/>
<path d="M258.339 330.066H187.58C185.796 330.066 184.345 328.614 184.345 326.83C184.345 325.045 185.796 323.594 187.58 323.594H258.339C260.123 323.594 261.573 325.045 261.573 326.83C261.573 328.614 260.123 330.066 258.339 330.066Z" fill="#007EB4"/>
<path d="M158.328 221.906H117.931C117.78 221.906 117.657 222.029 117.657 222.18V226.883C117.657 227.034 117.78 227.157 117.931 227.157H158.328C158.479 227.157 158.601 227.034 158.601 226.883V222.18C158.601 222.029 158.479 221.906 158.328 221.906Z" fill="#007EB4"/>
<path d="M294.401 227.157C296.72 227.157 298.6 225.276 298.6 222.956C298.6 220.637 296.72 218.756 294.401 218.756C292.082 218.756 290.202 220.637 290.202 222.956C290.202 225.276 292.082 227.157 294.401 227.157Z" fill="#FF6100"/>
<path d="M305.949 227.157C308.269 227.157 310.149 225.276 310.149 222.956C310.149 220.637 308.269 218.756 305.949 218.756C303.63 218.756 301.75 220.637 301.75 222.956C301.75 225.276 303.63 227.157 305.949 227.157Z" fill="#FF6100"/>
<path d="M317.498 227.157C319.817 227.157 321.697 225.276 321.697 222.956C321.697 220.637 319.817 218.756 317.498 218.756C315.178 218.756 313.298 220.637 313.298 222.956C313.298 225.276 315.178 227.157 317.498 227.157Z" fill="#FF6100"/>
<path d="M131.967 347.386C131.967 347.968 132.434 348.434 133.015 348.434H312.903C313.484 348.434 313.951 347.968 313.951 347.386C313.951 346.805 313.484 346.338 312.903 346.338H133.015C132.434 346.338 131.967 346.805 131.967 347.386Z" fill="#3F3D56"/>
<path d="M186.83 88.8774C190.659 85.7125 195.396 85.1234 197.41 87.5613C199.423 89.9993 197.951 94.5404 194.119 97.7059C192.606 98.9914 190.807 99.8958 188.873 100.343L172.477 113.548L166.445 105.721L183.249 93.5342C184.054 91.7182 185.281 90.1214 186.83 88.8774Z" fill="#A0616A"/>
<path d="M92.0642 118.671C92.0558 118.087 92.0613 112.993 95.8319 109.774C100.163 106.075 106.275 107.572 108.419 108.097C113.371 109.31 113.777 111.435 118.427 113.618C127.127 117.702 116.226 115.612 121.403 114.302C123.195 113.849 148.975 112.06 155.392 108.11C167.873 100.427 176.377 95.7685 176.377 95.7685L181.936 106.889C181.936 106.889 173.897 118.068 162.584 126.349C150.979 134.845 145.176 139.092 136.358 140.733C135.599 140.875 116.922 144.064 101.88 132.824C98.4487 130.26 92.1621 125.563 92.0642 118.671Z" fill="#007EB4"/>
<path d="M109.309 90.3906C120.004 90.3906 128.675 81.7188 128.675 71.0217C128.675 60.3246 120.004 51.6528 109.309 51.6528C98.6134 51.6528 89.9431 60.3246 89.9431 71.0217C89.9431 81.7188 98.6134 90.3906 109.309 90.3906Z" fill="#A0616A"/>
<path d="M260.974 201.149L241.03 180.731L230.734 191.472L245.594 211.05L260.332 212.735L260.974 201.149Z" fill="#A0616A"/>
<path d="M147.093 162.86C148.259 162.957 151.966 163.7 155.509 161.75C157.928 160.42 159.168 158.441 159.587 157.812C164.783 150.006 184.728 137.834 202.629 137.085C206.682 136.915 209.351 137.385 211.776 138.649C215.215 140.442 216.588 143.01 220.952 149.026C223.339 152.317 225.98 155.418 228.396 158.687C242.539 177.83 247.901 179.333 247.353 185.47C246.745 192.28 239.402 198.74 234.522 197.994C232.524 197.689 231.75 196.299 229.079 193.485C221.25 185.235 218.011 186.759 212.437 180.44C205.929 173.062 206.781 166.945 203.386 166.709C200.237 166.49 198.899 171.708 192.177 178.641C189.102 181.813 186.911 183.268 180.238 187.898C154.253 205.928 153.838 207.196 148.594 208.634C146.299 209.263 130.015 213.728 124.213 206.622C115.135 195.502 136.582 161.987 147.093 162.86Z" fill="#2F2E41"/>
<path d="M254.876 205.763C256.343 205.105 258.058 204.334 258.61 202.563C258.984 201.365 258.768 199.887 257.997 198.866C257.106 197.687 255.788 197.532 255.842 197.324C255.923 197.006 259.039 197.13 262.461 198.34C263.106 198.568 266.031 199.637 269.752 202.542C272.733 204.87 272.332 205.336 274.201 206.678C279.939 210.798 285.321 207.551 288.426 211.415C289.624 212.906 290.135 215.023 289.631 216.735C288.618 220.172 283.693 221.355 281.002 221.966C274.52 223.437 269.613 222.236 264.49 221.373C247.067 218.436 237.277 221.111 235.967 217.074C235.719 216.31 236.122 216.375 237.465 210.767C238.791 205.233 238.748 203.714 239.877 203.27C241.577 202.603 242.718 205.638 247 206.676C250.795 207.596 253.926 206.19 254.876 205.763Z" fill="#2F2E41"/>
<path d="M225.517 267.946L220.478 239.849L205.928 242.955L207.232 267.5L218.481 277.172L225.517 267.946Z" fill="#A0616A"/>
<path d="M152.783 172.304C153.694 173.04 156.344 175.736 160.37 176.113C163.118 176.37 165.255 175.429 165.955 175.144C174.638 171.604 197.975 172.733 213.208 182.167C216.657 184.303 218.601 186.191 219.898 188.599C221.737 192.014 221.431 194.91 221.664 202.339C221.792 206.403 222.237 210.451 222.4 214.514C223.355 238.297 226.948 242.552 223.049 247.322C218.723 252.615 209.02 253.837 205.401 250.479C203.919 249.104 204.058 247.519 203.429 243.691C201.583 232.467 198.047 231.909 196.982 223.55C195.739 213.79 199.879 209.207 197.202 207.105C194.72 205.155 190.683 208.722 181.228 210.683C176.902 211.58 174.273 211.554 166.152 211.638C134.527 211.963 133.472 212.778 128.326 211.023C126.074 210.255 110.092 204.803 109.281 195.665C108.013 181.365 144.576 165.678 152.783 172.304Z" fill="#2F2E41"/>
<path d="M217.881 268.339C219.464 268.618 221.316 268.944 222.767 267.788C223.749 267.006 224.401 265.662 224.335 264.384C224.26 262.909 223.257 262.04 223.418 261.898C223.663 261.681 226.173 263.534 228.324 266.456C228.731 267.008 230.551 269.535 231.998 274.028C233.158 277.628 232.564 277.789 233.357 279.95C235.792 286.581 242.068 286.917 242.468 291.858C242.623 293.764 241.857 295.803 240.479 296.936C237.711 299.212 232.971 297.425 230.401 296.419C224.212 293.995 220.826 290.246 217.072 286.654C204.304 274.439 194.702 271.154 195.884 267.078C196.108 266.306 196.405 266.586 200.665 262.701C204.869 258.867 205.686 257.585 206.869 257.852C208.65 258.255 207.891 261.407 210.851 264.671C213.474 267.564 216.855 268.159 217.881 268.339Z" fill="#2F2E41"/>
<path d="M111.949 74.7245C112.703 72.0272 111.756 71.0442 112.721 69.8335C112.721 69.8335 113.11 69.3463 116.582 68.0315C115.557 62.0865 116.324 61.0812 116.324 61.0812C117.209 59.9226 118.98 59.6425 120.185 59.7941C122.735 60.1146 123.186 62.42 124.818 62.3683C127.072 62.2968 129.775 57.7844 128.936 53.8734C128.252 50.6831 125.3 48.3138 124.561 48.7249C123.827 49.1326 121.187 47.3351 120.185 47.6953C119.501 47.9412 116.282 47.614 115.552 47.9527C114.755 48.3226 112.473 50.6254 112.254 50.3353C110.738 48.3189 110.77 47.615 109.89 47.1804C108.331 46.4104 106.636 47.8336 103.713 49.2398C97.6991 52.1329 95.9382 50.4071 93.1604 52.8437C91.7572 54.0745 91.0047 56.4268 89.557 61.0812C87.5325 67.5902 86.5203 70.8448 87.498 73.9522C88.4951 77.1213 89.9635 76.4315 92.1308 80.9026C94.5434 85.8796 93.7119 88.7726 95.9915 89.9123C97.7534 90.7933 100.585 90.2326 101.654 88.6253C103.484 85.8733 98.7534 82.1506 100.367 77.8135C101.357 75.1513 104.413 73.1327 106.287 73.6948C108.405 74.3304 108.561 78.1298 109.89 78.071C111.028 78.0206 111.818 75.1945 111.949 74.7245Z" fill="#2F2E41"/>
<path d="M97.2784 93.2588C101.241 88.8147 117.383 93.4145 118.898 100.467C119.521 103.367 117.221 104.592 117.869 107.932C118.816 112.817 124.182 112.484 128.164 117.456C133.818 124.516 127.993 131.417 134.341 143.199C135.697 145.716 136.841 147.838 139.231 149.892C144.717 154.604 149.822 152.988 152.615 157.357C154.704 160.624 153.846 164.651 153.644 165.594C152.82 169.462 150.586 170.405 149.012 173.574C146.392 178.848 149.358 182.719 149.526 189.02C149.737 196.903 145.549 207.83 137.172 211.415C127.762 215.443 116.412 208.772 110.92 202.148C107.642 198.195 106.691 194.55 105.257 190.049C98.8494 169.937 95.2294 171.756 90.3292 155.812C84.7273 137.586 83.6261 116.233 90.3292 109.476C91.2176 108.581 93.6627 106.511 95.2194 102.783C97.3141 97.7678 95.5045 95.2482 97.2784 93.2588Z" fill="#007EB4"/>
<path d="M155.834 196.712C158.907 200.616 159.383 205.366 156.898 207.322C154.414 209.277 149.91 207.697 146.837 203.79C145.588 202.247 144.726 200.427 144.325 198.482L131.516 181.774L138.134 176.725L151.265 193.021C153.061 193.868 154.628 195.134 155.834 196.712Z" fill="#A0616A"/>
<path d="M108.922 110.196C109.492 110.068 114.479 109.034 118.4 112.069C122.904 115.555 122.686 121.845 122.609 124.051C122.432 129.147 120.436 129.978 119.248 134.977C117.026 144.329 121.258 153.02 123.596 157.822C124.405 159.484 127.006 164.57 132.182 170.047C142.248 180.699 151.23 186.304 151.23 186.304L141.581 194.883C141.581 194.883 126.211 190.197 115.796 180.81C105.113 171.18 88.6846 137.11 85.2789 128.811C84.9856 128.096 89.1401 139.716 97.0726 122.694C98.882 118.812 102.197 111.698 108.922 110.196Z" fill="#007EB4"/>
<path d="M241.223 371.378C235.09 372.318 230.604 376.245 231.203 380.149C231.802 384.053 237.258 386.454 243.394 385.513C245.849 385.17 248.188 384.245 250.213 382.813L276.149 378.501L274.418 368.248L248.54 371.91C246.179 371.151 243.67 370.968 241.223 371.378Z" fill="#FFB6B6"/>
<path d="M352.987 339.416L342.931 360.76L292.374 377.782L250.422 380.02L249.371 369.943L294.838 360.435L341.491 338.384L352.987 339.416Z" fill="#E6E6E6"/>
<path d="M259.742 420.459L250.713 443.3L239.029 435.332L245.933 411.428L259.742 420.459Z" fill="#FFB6B6"/>
<path d="M222.033 411.96L198.133 434.801L207.693 444.894L232.124 425.771L222.033 411.96Z" fill="#FFB6B6"/>
<path d="M357.467 337.592L357.201 335.733L351.093 323.781L330.911 329.093L334.629 345.56L357.467 337.592Z" fill="#FFB6B6"/>
<path d="M348.969 417.272L349.589 425.25C349.589 425.25 352.155 458.705 331.442 461.361C310.729 464.017 301.7 466.673 289.484 445.956L270.364 411.96L259.196 425.25L244.34 413.553C244.34 413.553 254.962 372.12 263.46 370.526C264.522 370.327 265.584 370.227 266.63 370.206C273.665 370.059 280.297 373.501 284.506 379.14L308.604 411.428L317.368 407.444L348.969 417.272Z" fill="#FF6100"/>
<path d="M234.249 442.238L239.029 433.208L252.837 442.769C252.837 442.769 256.024 454.456 251.244 456.049C246.464 457.643 233.186 455.518 233.186 455.518C233.186 455.518 208.755 460.83 208.224 456.049C207.693 451.268 219.377 450.206 219.377 450.206L234.249 442.238Z" fill="#2F2E41"/>
<path d="M286.298 435.864L249.385 412.602L230.531 429.489L217.784 414.616C217.784 414.616 241.153 380.088 248.057 378.494C254.962 376.901 266.115 375.838 266.115 375.838L300.106 407.179L286.298 435.864Z" fill="#FF6100"/>
<path d="M197.602 432.676L209.817 445.956L208.207 447.335C208.207 447.335 205.037 461.139 197.602 456.469C190.166 451.8 189.635 450.737 189.635 450.737C189.635 450.737 168.391 455.518 166.266 447.019C164.142 438.52 169.984 440.113 169.984 440.113L175.289 443.3L197.602 432.676Z" fill="#2F2E41"/>
<path d="M337.284 334.936C346.671 334.936 354.28 327.325 354.28 317.937C354.28 308.549 346.671 300.939 337.284 300.939C327.898 300.939 320.289 308.549 320.289 317.937C320.289 327.325 327.898 334.936 337.284 334.936Z" fill="#FFB6B6"/>
<path d="M333.301 342.107L357.732 334.67C357.732 334.67 367.292 356.981 365.699 367.073C364.105 377.166 349.589 425.25 349.589 425.25L317.368 407.444C317.368 407.444 316.837 396.82 315.243 392.04C313.65 387.259 308.604 372.651 319.758 360.433C330.911 348.216 333.301 342.107 333.301 342.107Z" fill="#E6E6E6"/>
<path d="M279.53 453.649C275.554 458.413 274.789 464.327 277.82 466.857C280.852 469.387 286.532 467.576 290.509 462.81C292.124 460.927 293.264 458.686 293.835 456.272L310.427 435.874L302.345 429.332L285.367 449.205C283.094 450.199 281.093 451.723 279.53 453.649Z" fill="#FFB6B6"/>
<path d="M352.041 352.824L357.815 375.701L329.552 420.95L300.7 449.953L291.348 442.193L320.446 405.982L342.503 359.325L352.041 352.824Z" fill="#E6E6E6"/>
<path d="M321.616 315.016C325.975 315.005 326.223 315.034 326.928 315.016C332.334 314.873 333.747 312.746 336.488 312.891C341.378 313.15 334.923 337.675 332.239 349.013C329.606 360.132 338.504 370.096 339.143 370.792C348.175 380.616 364.039 382.412 366.761 378.229C368.964 374.842 361.156 369.694 363.043 362.293C364.888 355.058 373.408 355.828 375.79 349.013C378.284 341.875 369.902 338.275 364.637 320.859C361.612 310.857 362.147 308.993 359.325 302.798C351.783 286.239 314.81 293.29 318.961 308.641C319.764 311.611 317.627 315.025 321.616 315.016Z" fill="#2F2E41"/>
<path d="M375.887 113.223H197.267C192.215 113.223 188.106 109.113 188.106 104.061V9.16234C188.106 4.11051 192.215 0 197.267 0H375.887C380.939 0 385.048 4.1105 385.048 9.16234V104.061C385.048 109.113 380.939 113.223 375.887 113.223Z" fill="white"/>
<path d="M375.887 113.223H197.267C192.215 113.223 188.106 109.113 188.106 104.061V9.16234C188.106 4.11051 192.215 0 197.267 0H375.887C380.939 0 385.048 4.1105 385.048 9.16234V104.061C385.048 109.113 380.939 113.223 375.887 113.223ZM197.267 1.53004C193.059 1.53004 189.636 4.95397 189.636 9.16234V104.061C189.636 108.269 193.059 111.693 197.267 111.693H375.887C380.095 111.693 383.519 108.269 383.519 104.061V9.16234C383.519 4.95397 380.095 1.53004 375.887 1.53004H197.267Z" fill="#3F3D56"/>
<path d="M362.101 11.4753C363.369 11.4753 364.396 10.4478 364.396 9.18026C364.396 7.91273 363.369 6.88519 362.101 6.88519C360.834 6.88519 359.807 7.91273 359.807 9.18026C359.807 10.4478 360.834 11.4753 362.101 11.4753Z" fill="#F26A1B"/>
<path d="M368.221 11.4753C369.488 11.4753 370.515 10.4478 370.515 9.18026C370.515 7.91273 369.488 6.88519 368.221 6.88519C366.953 6.88519 365.926 7.91273 365.926 9.18026C365.926 10.4478 366.953 11.4753 368.221 11.4753Z" fill="#F26A1B"/>
<path d="M374.34 11.4753C375.607 11.4753 376.634 10.4478 376.634 9.18026C376.634 7.91273 375.607 6.88519 374.34 6.88519C373.072 6.88519 372.045 7.91273 372.045 9.18026C372.045 10.4478 373.072 11.4753 374.34 11.4753Z" fill="#F26A1B"/>
<path d="M201.109 46.2838C200.476 46.2838 199.962 46.7986 199.962 47.4314C199.962 47.7399 200.081 48.0253 200.297 48.236C200.515 48.4594 200.801 48.5789 201.109 48.5789H372.81C373.443 48.5789 373.957 48.0642 373.957 47.4314C373.957 47.1228 373.838 46.8374 373.622 46.6268C373.404 46.4034 373.118 46.2838 372.81 46.2838H201.109Z" fill="#3F3D56"/>
<path d="M351.393 45.9013V48.9614H201.109C200.688 48.9614 200.306 48.7931 200.031 48.51C199.748 48.2346 199.579 47.8521 199.579 47.4314C199.579 46.5898 200.268 45.9013 201.109 45.9013H351.393Z" fill="#3F3D56"/>
<path d="M370.898 40.1637H355.6C353.913 40.1637 352.54 38.7913 352.54 37.1036C352.54 35.4159 353.913 34.0435 355.6 34.0435H370.898C372.585 34.0435 373.957 35.4159 373.957 37.1036C373.957 38.7913 372.585 40.1637 370.898 40.1637Z" fill="#007EB4"/>
<path d="M270.696 24.0982H202.256C200.569 24.0982 199.197 22.7258 199.197 21.0381C199.197 19.3504 200.569 17.978 202.256 17.978H270.696C272.383 17.978 273.756 19.3504 273.756 21.0381C273.756 22.7258 272.383 24.0982 270.696 24.0982Z" fill="#F26A1B"/>
<path d="M201.109 80.7098C200.476 80.7098 199.962 81.2246 199.962 81.8574C199.962 82.1659 200.081 82.4513 200.297 82.662C200.515 82.8854 200.801 83.0049 201.109 83.0049H372.81C373.443 83.0049 373.957 82.4902 373.957 81.8574C373.957 81.5488 373.838 81.2634 373.622 81.0528C373.404 80.8294 373.118 80.7098 372.81 80.7098H201.109Z" fill="#3F3D56"/>
<path d="M292.496 80.3273V83.3874H201.109C200.688 83.3874 200.306 83.2191 200.031 82.936C199.748 82.6606 199.579 82.2781 199.579 81.8574C199.579 81.0158 200.268 80.3273 201.109 80.3273H292.496Z" fill="#3F3D56"/>
<path d="M370.898 74.5897H355.6C353.913 74.5897 352.54 73.2173 352.54 71.5296C352.54 69.8419 353.913 68.4695 355.6 68.4695H370.898C372.585 68.4695 373.957 69.8419 373.957 71.5296C373.957 73.2173 372.585 74.5897 370.898 74.5897Z" fill="#007EB4"/>
</g>
<defs>
<clipPath id="clip0_8_4">
<rect width="462" height="468" fill="white"/>
</clipPath>
</defs>
</svg>
